<mxfile host="app.diagrams.net" modified="2021-04-10T03:31:18.594Z" agent="5.0 (Macintosh; Intel Mac OS X 10_15_4) AppleWebKit/605.1.15 (KHTML, like Gecko) Version/13.1 Safari/605.1.15" etag="hemWoLLSdkdR8jkz3FLB" version="14.5.1" type="github">
  <diagram id="LUWgopSz0b4NJ1lY-Evr" name="Page-1">
    <mxGraphModel dx="1186" dy="559" grid="1" gridSize="10" guides="1" tooltips="1" connect="1" arrows="1" fold="1" page="1" pageScale="1" pageWidth="827" pageHeight="1169" math="0" shadow="0">
      <root>
        <mxCell id="0" />
        <mxCell id="1" parent="0" />
        <mxCell id="5-l3gpzBWCDoj1tkfaAm-13" style="edgeStyle=orthogonalEdgeStyle;shape=flexArrow;rounded=0;orthogonalLoop=1;jettySize=auto;html=1;fontFamily=Courier New;fontSize=12;entryX=0.5;entryY=1;entryDx=0;entryDy=0;fillColor=#dae8fc;strokeColor=#6c8ebf;" parent="1" source="5-l3gpzBWCDoj1tkfaAm-15" target="5-l3gpzBWCDoj1tkfaAm-38" edge="1">
          <mxGeometry relative="1" as="geometry">
            <mxPoint x="1095" y="995" as="targetPoint" />
          </mxGeometry>
        </mxCell>
        <mxCell id="5-l3gpzBWCDoj1tkfaAm-14" style="edgeStyle=orthogonalEdgeStyle;shape=flexArrow;rounded=0;orthogonalLoop=1;jettySize=auto;html=1;exitX=0.25;exitY=0;exitDx=0;exitDy=0;entryX=0.75;entryY=0;entryDx=0;entryDy=0;fontFamily=Courier New;fontSize=12;fillColor=#f8cecc;strokeColor=#b85450;" parent="1" source="5-l3gpzBWCDoj1tkfaAm-15" target="5-l3gpzBWCDoj1tkfaAm-23" edge="1">
          <mxGeometry relative="1" as="geometry" />
        </mxCell>
        <mxCell id="5-l3gpzBWCDoj1tkfaAm-15" value="&lt;span&gt;VideoTrackProxy&lt;/span&gt;" style="rounded=0;whiteSpace=wrap;html=1;fontFamily=Courier New;fontSize=12;verticalAlign=top;" parent="1" vertex="1">
          <mxGeometry x="957.5" y="1137" width="285" height="168" as="geometry" />
        </mxCell>
        <mxCell id="5-l3gpzBWCDoj1tkfaAm-16" value="" style="edgeStyle=orthogonalEdgeStyle;shape=flexArrow;rounded=0;orthogonalLoop=1;jettySize=auto;html=1;fontFamily=Courier New;fontSize=12;width=8;endSize=5.67;fillColor=#dae8fc;strokeColor=#6c8ebf;" parent="1" edge="1">
          <mxGeometry relative="1" as="geometry">
            <mxPoint x="588" y="846.5" as="sourcePoint" />
            <mxPoint x="588" y="775" as="targetPoint" />
          </mxGeometry>
        </mxCell>
        <mxCell id="5-l3gpzBWCDoj1tkfaAm-17" style="edgeStyle=orthogonalEdgeStyle;shape=flexArrow;rounded=0;orthogonalLoop=1;jettySize=auto;html=1;exitX=1;exitY=0.5;exitDx=0;exitDy=0;fontFamily=Courier New;fontSize=12;fillColor=#dae8fc;strokeColor=#6c8ebf;" parent="1" source="5-l3gpzBWCDoj1tkfaAm-18" target="5-l3gpzBWCDoj1tkfaAm-38" edge="1">
          <mxGeometry relative="1" as="geometry" />
        </mxCell>
        <mxCell id="5-l3gpzBWCDoj1tkfaAm-18" value="RTCVideoSource&lt;br&gt;" style="rounded=0;whiteSpace=wrap;html=1;fontFamily=Courier New;fontSize=12;verticalAlign=top;" parent="1" vertex="1">
          <mxGeometry x="475" y="846.5" width="330" height="138.5" as="geometry" />
        </mxCell>
        <mxCell id="5-l3gpzBWCDoj1tkfaAm-19" value="" style="edgeStyle=orthogonalEdgeStyle;shape=flexArrow;rounded=0;orthogonalLoop=1;jettySize=auto;html=1;fontFamily=Courier New;fontSize=12;entryX=0.624;entryY=0.007;entryDx=0;entryDy=0;entryPerimeter=0;fillColor=#dae8fc;strokeColor=#6c8ebf;" parent="1" source="5-l3gpzBWCDoj1tkfaAm-20" target="5-l3gpzBWCDoj1tkfaAm-18" edge="1">
          <mxGeometry relative="1" as="geometry">
            <Array as="points">
              <mxPoint x="681" y="785" />
              <mxPoint x="681" y="785" />
            </Array>
          </mxGeometry>
        </mxCell>
        <mxCell id="5-l3gpzBWCDoj1tkfaAm-20" value="VideoCapturer" style="rounded=0;whiteSpace=wrap;html=1;fontFamily=Courier New;fontSize=12;verticalAlign=top;" parent="1" vertex="1">
          <mxGeometry x="505" y="675" width="270" height="100" as="geometry" />
        </mxCell>
        <mxCell id="5-l3gpzBWCDoj1tkfaAm-21" style="edgeStyle=orthogonalEdgeStyle;shape=flexArrow;rounded=0;orthogonalLoop=1;jettySize=auto;html=1;entryX=0.455;entryY=1;entryDx=0;entryDy=0;entryPerimeter=0;fontFamily=Courier New;fontSize=12;fillColor=#dae8fc;strokeColor=#6c8ebf;" parent="1" source="5-l3gpzBWCDoj1tkfaAm-23" target="5-l3gpzBWCDoj1tkfaAm-18" edge="1">
          <mxGeometry relative="1" as="geometry" />
        </mxCell>
        <mxCell id="5-l3gpzBWCDoj1tkfaAm-22" style="edgeStyle=orthogonalEdgeStyle;shape=flexArrow;rounded=0;orthogonalLoop=1;jettySize=auto;html=1;entryX=0.5;entryY=0;entryDx=0;entryDy=0;fontFamily=Courier New;fontSize=12;fillColor=#f8cecc;strokeColor=#b85450;" parent="1" source="5-l3gpzBWCDoj1tkfaAm-23" target="5-l3gpzBWCDoj1tkfaAm-161" edge="1">
          <mxGeometry relative="1" as="geometry">
            <mxPoint x="405" y="1245" as="sourcePoint" />
            <Array as="points">
              <mxPoint x="626" y="1475" />
              <mxPoint x="608" y="1475" />
            </Array>
          </mxGeometry>
        </mxCell>
        <mxCell id="5-l3gpzBWCDoj1tkfaAm-23" value="VideoTrackSourceProxy&lt;br&gt;" style="rounded=0;whiteSpace=wrap;html=1;fontFamily=Courier New;fontSize=12;verticalAlign=top;" parent="1" vertex="1">
          <mxGeometry x="521" y="1145" width="210" height="170" as="geometry" />
        </mxCell>
        <mxCell id="5-l3gpzBWCDoj1tkfaAm-24" value="ObjcVideoTrackSource&lt;br&gt;nativeVideoSource" style="rounded=0;whiteSpace=wrap;html=1;fontFamily=Courier New;fontSize=12;verticalAlign=top;" parent="1" vertex="1">
          <mxGeometry x="540" y="1184" width="180" height="91" as="geometry" />
        </mxCell>
        <mxCell id="5-l3gpzBWCDoj1tkfaAm-25" value="&lt;span&gt;RTCVideoSource&lt;br&gt;&lt;/span&gt;" style="rounded=0;whiteSpace=wrap;html=1;fontFamily=Courier New;fontSize=12;" parent="1" vertex="1">
          <mxGeometry x="590" y="705" width="120" height="60" as="geometry" />
        </mxCell>
        <mxCell id="5-l3gpzBWCDoj1tkfaAm-26" value="RTCVideoSource继承 RTCMediaSourcde&lt;br&gt;实现 RTCVideoCaptureDelegate" style="text;html=1;strokeColor=#9673a6;fillColor=#e1d5e7;align=center;verticalAlign=middle;whiteSpace=wrap;rounded=0;fontFamily=Courier New;fontSize=12;" parent="1" vertex="1">
          <mxGeometry x="255" y="786.5" width="160" height="98.5" as="geometry" />
        </mxCell>
        <mxCell id="5-l3gpzBWCDoj1tkfaAm-27" value="1.把VideoSource传给 VideoCapture" style="text;html=1;strokeColor=#6c8ebf;fillColor=#dae8fc;align=center;verticalAlign=middle;whiteSpace=wrap;rounded=0;fontFamily=Courier New;fontSize=12;" parent="1" vertex="1">
          <mxGeometry x="455" y="795" width="135" height="30" as="geometry" />
        </mxCell>
        <mxCell id="5-l3gpzBWCDoj1tkfaAm-28" value="2.把VideoCapture 采集数据传给VideoSource" style="text;html=1;strokeColor=#6c8ebf;fillColor=#dae8fc;align=center;verticalAlign=middle;whiteSpace=wrap;rounded=0;fontFamily=Courier New;fontSize=12;" parent="1" vertex="1">
          <mxGeometry x="700" y="786.5" width="160" height="30" as="geometry" />
        </mxCell>
        <mxCell id="5-l3gpzBWCDoj1tkfaAm-29" value="1.ObjcVideoTrackSource继承 AdaptVideoTrackSource；&lt;br&gt;2. AdaptVideoTrackSource 继承Notifier&amp;lt;T&amp;gt;&lt;br&gt;3.&amp;nbsp;Notifier 继承T,T就是VideoTrackSourceInterface&lt;br&gt;4. VideoTrackSourceInterface继承VideoSourceInterface 和 MediaSourceInterface&lt;br&gt;5.&amp;nbsp;MediaSourceInterface 继承NotifierInterface" style="text;html=1;strokeColor=#9673a6;fillColor=#e1d5e7;align=left;verticalAlign=middle;whiteSpace=wrap;rounded=0;fontFamily=Courier New;fontSize=12;" parent="1" vertex="1">
          <mxGeometry x="200" y="1220" width="270" height="170" as="geometry" />
        </mxCell>
        <mxCell id="5-l3gpzBWCDoj1tkfaAm-30" value="" style="endArrow=none;html=1;fontFamily=Courier New;fontSize=12;fillColor=#008a00;strokeColor=#005700;" parent="1" edge="1">
          <mxGeometry width="50" height="50" relative="1" as="geometry">
            <mxPoint x="10" y="1040" as="sourcePoint" />
            <mxPoint x="1650" y="1040" as="targetPoint" />
          </mxGeometry>
        </mxCell>
        <mxCell id="5-l3gpzBWCDoj1tkfaAm-31" value="Object-c" style="text;html=1;strokeColor=#b85450;fillColor=#f8cecc;align=center;verticalAlign=middle;whiteSpace=wrap;rounded=0;fontFamily=Courier New;fontSize=12;" parent="1" vertex="1">
          <mxGeometry x="350" y="925" width="70" height="20" as="geometry" />
        </mxCell>
        <mxCell id="5-l3gpzBWCDoj1tkfaAm-32" value="C++" style="text;html=1;strokeColor=#b85450;fillColor=#f8cecc;align=center;verticalAlign=middle;whiteSpace=wrap;rounded=0;fontFamily=Courier New;fontSize=12;" parent="1" vertex="1">
          <mxGeometry x="345" y="1175" width="70" height="20" as="geometry" />
        </mxCell>
        <mxCell id="5-l3gpzBWCDoj1tkfaAm-33" value="4.把nativevideosource保存在RTCVideoSource" style="text;html=1;strokeColor=#6c8ebf;fillColor=#dae8fc;align=center;verticalAlign=middle;whiteSpace=wrap;rounded=0;fontFamily=Courier New;fontSize=12;" parent="1" vertex="1">
          <mxGeometry x="590" y="1052" width="160" height="40" as="geometry" />
        </mxCell>
        <mxCell id="5-l3gpzBWCDoj1tkfaAm-34" style="edgeStyle=orthogonalEdgeStyle;shape=flexArrow;rounded=0;orthogonalLoop=1;jettySize=auto;html=1;fontFamily=Courier New;fontSize=12;entryX=0.997;entryY=0.586;entryDx=0;entryDy=0;exitX=-0.015;exitY=0.629;exitDx=0;exitDy=0;exitPerimeter=0;entryPerimeter=0;fillColor=#dae8fc;strokeColor=#6c8ebf;" parent="1" source="5-l3gpzBWCDoj1tkfaAm-36" target="5-l3gpzBWCDoj1tkfaAm-24" edge="1">
          <mxGeometry relative="1" as="geometry" />
        </mxCell>
        <mxCell id="5-l3gpzBWCDoj1tkfaAm-36" value="&lt;span&gt;VideoTrack&lt;/span&gt;" style="rounded=0;whiteSpace=wrap;html=1;fontFamily=Courier New;fontSize=12;verticalAlign=top;" parent="1" vertex="1">
          <mxGeometry x="1003.5" y="1169" width="200" height="91" as="geometry" />
        </mxCell>
        <mxCell id="5-l3gpzBWCDoj1tkfaAm-38" value="&lt;span&gt;RTCVideoTrack&lt;/span&gt;" style="rounded=0;whiteSpace=wrap;html=1;fontFamily=Courier New;fontSize=12;verticalAlign=top;" parent="1" vertex="1">
          <mxGeometry x="935" y="838.5" width="330" height="140" as="geometry" />
        </mxCell>
        <mxCell id="5-l3gpzBWCDoj1tkfaAm-39" value="&lt;span&gt;RTCVideoSource&lt;br&gt;&lt;/span&gt;" style="rounded=0;whiteSpace=wrap;html=1;fontFamily=Courier New;fontSize=12;" parent="1" vertex="1">
          <mxGeometry x="1035" y="875" width="120" height="30" as="geometry" />
        </mxCell>
        <mxCell id="5-l3gpzBWCDoj1tkfaAm-40" value="VideoTrackSourceInterface nativeVideoSource&lt;span&gt;&lt;br&gt;&lt;/span&gt;" style="rounded=0;whiteSpace=wrap;html=1;fontFamily=Courier New;fontSize=12;" parent="1" vertex="1">
          <mxGeometry x="515" y="881.5" width="250" height="70" as="geometry" />
        </mxCell>
        <mxCell id="5-l3gpzBWCDoj1tkfaAm-41" value="VideoTrackInterface nativeVideoTrack&lt;span&gt;&lt;br&gt;&lt;/span&gt;" style="rounded=0;whiteSpace=wrap;html=1;fontFamily=Courier New;fontSize=12;" parent="1" vertex="1">
          <mxGeometry x="985" y="914" width="250" height="51" as="geometry" />
        </mxCell>
        <mxCell id="5-l3gpzBWCDoj1tkfaAm-42" value="7.把nativevideotrack保存在RTCVideoTrack" style="text;html=1;strokeColor=#6c8ebf;fillColor=#dae8fc;align=center;verticalAlign=middle;whiteSpace=wrap;rounded=0;fontFamily=Courier New;fontSize=12;" parent="1" vertex="1">
          <mxGeometry x="1075" y="1052" width="160" height="40" as="geometry" />
        </mxCell>
        <mxCell id="5-l3gpzBWCDoj1tkfaAm-43" value="RTCVideoTrack继承 RTCMediaStreamTrack" style="text;html=1;strokeColor=#9673a6;fillColor=#e1d5e7;align=center;verticalAlign=middle;whiteSpace=wrap;rounded=0;fontFamily=Courier New;fontSize=12;" parent="1" vertex="1">
          <mxGeometry x="1060" y="738" width="190" height="80" as="geometry" />
        </mxCell>
        <mxCell id="5-l3gpzBWCDoj1tkfaAm-44" value="1.VideoTrack继承&amp;nbsp;&lt;br&gt;MediaStreamTrack&amp;lt;VideoTrackInterface&amp;gt;，&lt;br&gt;VideoSourceBase，&lt;br&gt;ObserverInterface；&lt;br&gt;2.&amp;nbsp;MediaStreamTrack&amp;nbsp;继承&lt;br&gt;Notifier&amp;lt;T&amp;gt;&lt;br&gt;3.&amp;nbsp;Notifier 继承T,T就是VideoTrackInterface&lt;br&gt;4.&amp;nbsp;VideoSourceBase继承VideoSourceInterface" style="text;html=1;strokeColor=#9673a6;fillColor=#e1d5e7;align=left;verticalAlign=middle;whiteSpace=wrap;rounded=0;fontFamily=Courier New;fontSize=12;" parent="1" vertex="1">
          <mxGeometry x="961.6300000000001" y="1345" width="320" height="170" as="geometry" />
        </mxCell>
        <mxCell id="5-l3gpzBWCDoj1tkfaAm-45" value="3.把VideoSource传给 VideoTrack" style="text;html=1;strokeColor=#6c8ebf;fillColor=#dae8fc;align=center;verticalAlign=middle;whiteSpace=wrap;rounded=0;fontFamily=Courier New;fontSize=12;" parent="1" vertex="1">
          <mxGeometry x="800" y="865" width="135" height="30" as="geometry" />
        </mxCell>
        <mxCell id="5-l3gpzBWCDoj1tkfaAm-109" value="6.VideoTrack 继承于ObserverInterface，所以把VideoTrack 通过NotifierInterface&lt;br&gt;（&lt;span style=&quot;text-align: center&quot;&gt;ObjcVideoTrackSource继承于&lt;/span&gt;NotifierInterface&lt;br&gt;）的RegistObserver，这样&lt;span style=&quot;text-align: center&quot;&gt;ObjcVideoTrackSource 会通知&lt;/span&gt;VideoTrack，OnChanged" style="text;html=1;strokeColor=#6c8ebf;fillColor=#dae8fc;align=left;verticalAlign=top;whiteSpace=wrap;rounded=0;fontFamily=Courier New;fontSize=12;" parent="1" vertex="1">
          <mxGeometry x="753" y="1230.69" width="195" height="148.62" as="geometry" />
        </mxCell>
        <mxCell id="5-l3gpzBWCDoj1tkfaAm-137" style="edgeStyle=orthogonalEdgeStyle;shape=flexArrow;rounded=0;orthogonalLoop=1;jettySize=auto;html=1;entryX=0.177;entryY=-0.032;entryDx=0;entryDy=0;entryPerimeter=0;fontFamily=Courier New;fontSize=12;fillColor=#f8cecc;strokeColor=#b85450;" parent="1" source="5-l3gpzBWCDoj1tkfaAm-139" target="5-l3gpzBWCDoj1tkfaAm-38" edge="1">
          <mxGeometry relative="1" as="geometry" />
        </mxCell>
        <mxCell id="5-l3gpzBWCDoj1tkfaAm-138" style="edgeStyle=orthogonalEdgeStyle;shape=flexArrow;rounded=0;orthogonalLoop=1;jettySize=auto;html=1;entryX=0.006;entryY=0.358;entryDx=0;entryDy=0;entryPerimeter=0;fontFamily=Courier New;fontSize=12;fillColor=#f8cecc;strokeColor=#b85450;" parent="1" source="5-l3gpzBWCDoj1tkfaAm-139" target="5-l3gpzBWCDoj1tkfaAm-143" edge="1">
          <mxGeometry relative="1" as="geometry" />
        </mxCell>
        <mxCell id="5-l3gpzBWCDoj1tkfaAm-139" value="RtcMTLNSVideoView" style="rounded=0;whiteSpace=wrap;html=1;fontFamily=Courier New;fontSize=12;align=center;" parent="1" vertex="1">
          <mxGeometry x="913" y="515" width="162" height="60" as="geometry" />
        </mxCell>
        <mxCell id="5-l3gpzBWCDoj1tkfaAm-140" value="1.add/removeRender&lt;br&gt;把render 添加到&lt;br&gt;RTCVideoTrack" style="text;html=1;align=center;verticalAlign=middle;resizable=0;points=[];autosize=1;fontSize=12;fontFamily=Courier New;fillColor=#f8cecc;strokeColor=#b85450;" parent="1" vertex="1">
          <mxGeometry x="845" y="650" width="150" height="50" as="geometry" />
        </mxCell>
        <mxCell id="5-l3gpzBWCDoj1tkfaAm-141" value="RtcMTLNSVideoView继承&amp;nbsp;RtcVideoRender" style="text;html=1;strokeColor=#9673a6;fillColor=#e1d5e7;align=center;verticalAlign=middle;whiteSpace=wrap;rounded=0;fontFamily=Courier New;fontSize=12;" parent="1" vertex="1">
          <mxGeometry x="910" y="395" width="190" height="80" as="geometry" />
        </mxCell>
        <mxCell id="5-l3gpzBWCDoj1tkfaAm-142" style="edgeStyle=orthogonalEdgeStyle;shape=flexArrow;rounded=0;orthogonalLoop=1;jettySize=auto;html=1;exitX=0.5;exitY=1;exitDx=0;exitDy=0;entryX=0.702;entryY=0.016;entryDx=0;entryDy=0;fontFamily=Courier New;fontSize=12;entryPerimeter=0;fillColor=#f8cecc;strokeColor=#b85450;" parent="1" source="5-l3gpzBWCDoj1tkfaAm-143" target="5-l3gpzBWCDoj1tkfaAm-147" edge="1">
          <mxGeometry relative="1" as="geometry" />
        </mxCell>
        <mxCell id="5-l3gpzBWCDoj1tkfaAm-143" value="RTCVideoRenderAdapter" style="rounded=0;whiteSpace=wrap;html=1;fontFamily=Courier New;fontSize=12;align=center;verticalAlign=top;" parent="1" vertex="1">
          <mxGeometry x="1208.25" y="502" width="306.75" height="120" as="geometry" />
        </mxCell>
        <mxCell id="5-l3gpzBWCDoj1tkfaAm-144" value="2.render 添加到" style="text;html=1;align=center;verticalAlign=middle;resizable=0;points=[];autosize=1;fontSize=12;fontFamily=Courier New;fillColor=#f8cecc;strokeColor=#b85450;" parent="1" vertex="1">
          <mxGeometry x="1075" y="515" width="120" height="20" as="geometry" />
        </mxCell>
        <mxCell id="5-l3gpzBWCDoj1tkfaAm-145" style="edgeStyle=orthogonalEdgeStyle;shape=flexArrow;rounded=0;orthogonalLoop=1;jettySize=auto;html=1;entryX=0.366;entryY=1.035;entryDx=0;entryDy=0;entryPerimeter=0;fontFamily=Courier New;fontSize=12;fillColor=#f8cecc;strokeColor=#b85450;" parent="1" source="5-l3gpzBWCDoj1tkfaAm-147" target="5-l3gpzBWCDoj1tkfaAm-143" edge="1">
          <mxGeometry relative="1" as="geometry" />
        </mxCell>
        <mxCell id="5-l3gpzBWCDoj1tkfaAm-146" style="edgeStyle=orthogonalEdgeStyle;shape=flexArrow;rounded=0;orthogonalLoop=1;jettySize=auto;html=1;entryX=1;entryY=0.25;entryDx=0;entryDy=0;fontFamily=Courier New;fontSize=12;exitX=0.848;exitY=-0.024;exitDx=0;exitDy=0;exitPerimeter=0;fillColor=#f8cecc;strokeColor=#b85450;" parent="1" source="5-l3gpzBWCDoj1tkfaAm-147" target="5-l3gpzBWCDoj1tkfaAm-15" edge="1">
          <mxGeometry relative="1" as="geometry" />
        </mxCell>
        <mxCell id="5-l3gpzBWCDoj1tkfaAm-147" value="VideoRenderAdapter" style="whiteSpace=wrap;html=1;fontFamily=Courier New;fontSize=12;align=center;verticalAlign=top;" parent="1" vertex="1">
          <mxGeometry x="1203.5" y="1770" width="252" height="110" as="geometry" />
        </mxCell>
        <mxCell id="5-l3gpzBWCDoj1tkfaAm-148" value="&lt;span&gt;VideoRenderAdapter nativeVideoRender&lt;/span&gt;" style="rounded=0;whiteSpace=wrap;html=1;fontFamily=Courier New;fontSize=12;align=center;" parent="1" vertex="1">
          <mxGeometry x="1235" y="535" width="260" height="30" as="geometry" />
        </mxCell>
        <mxCell id="5-l3gpzBWCDoj1tkfaAm-149" value="3.把&lt;span&gt;RTCVideoRenderAdapter&lt;/span&gt;&amp;nbsp;存到&lt;br&gt;VideoRenderAdapter" style="text;html=1;align=center;verticalAlign=middle;resizable=0;points=[];autosize=1;fontSize=12;fontFamily=Courier New;fillColor=#f8cecc;strokeColor=#b85450;" parent="1" vertex="1">
          <mxGeometry x="1346.5" y="1394.31" width="220" height="30" as="geometry" />
        </mxCell>
        <mxCell id="5-l3gpzBWCDoj1tkfaAm-150" value="&lt;span&gt;RTCVideoRenderAdapter adapter_&lt;/span&gt;" style="rounded=0;whiteSpace=wrap;html=1;fontFamily=Courier New;fontSize=12;align=center;verticalAlign=top;" parent="1" vertex="1">
          <mxGeometry x="1222.5" y="1795" width="220" height="35" as="geometry" />
        </mxCell>
        <mxCell id="5-l3gpzBWCDoj1tkfaAm-151" value="4.把VideoRenderAdapter 存到&lt;br&gt;nativeVideoRender" style="text;html=1;align=center;verticalAlign=middle;resizable=0;points=[];autosize=1;fontSize=12;fontFamily=Courier New;fillColor=#f8cecc;strokeColor=#b85450;" parent="1" vertex="1">
          <mxGeometry x="1170" y="1525" width="200" height="30" as="geometry" />
        </mxCell>
        <mxCell id="5-l3gpzBWCDoj1tkfaAm-152" value="VideoRenderAdapter继承&amp;nbsp;VideoSinkInterface&amp;lt;VideoFrame&amp;gt;" style="text;html=1;strokeColor=#9673a6;fillColor=#e1d5e7;align=center;verticalAlign=middle;whiteSpace=wrap;rounded=0;fontFamily=Courier New;fontSize=12;" parent="1" vertex="1">
          <mxGeometry x="1221.5" y="1935" width="260" height="80" as="geometry" />
        </mxCell>
        <mxCell id="5-l3gpzBWCDoj1tkfaAm-155" value="5.VideoTrack 继承了&lt;br&gt;VideoSourceInterface,&lt;br&gt;所以调用AddOrUpdateSink&lt;br&gt;把VideoRender 注册到VideoTrack&lt;br&gt;获取视频数据" style="text;html=1;align=left;verticalAlign=middle;resizable=0;points=[];autosize=1;fontSize=12;fontFamily=Courier New;fillColor=#f8cecc;strokeColor=#b85450;" parent="1" vertex="1">
          <mxGeometry x="1406.5" y="1560" width="220" height="80" as="geometry" />
        </mxCell>
        <mxCell id="5-l3gpzBWCDoj1tkfaAm-156" value="VideoTrackSource" style="rounded=0;whiteSpace=wrap;html=1;fontFamily=Courier New;fontSize=12;align=left;" parent="1" vertex="1">
          <mxGeometry x="1043.5" y="1193.19" width="120" height="21.63" as="geometry" />
        </mxCell>
        <mxCell id="5-l3gpzBWCDoj1tkfaAm-157" value="5.创建VideoTrack的时候，&lt;br&gt;把VideoSource &lt;br&gt;传给VideoTrack" style="text;html=1;align=center;verticalAlign=middle;resizable=0;points=[];autosize=1;fontSize=12;fontFamily=Courier New;fillColor=#dae8fc;strokeColor=#6c8ebf;" parent="1" vertex="1">
          <mxGeometry x="748" y="1151.5" width="170" height="50" as="geometry" />
        </mxCell>
        <mxCell id="5-l3gpzBWCDoj1tkfaAm-158" style="edgeStyle=orthogonalEdgeStyle;shape=flexArrow;rounded=0;orthogonalLoop=1;jettySize=auto;html=1;exitX=1;exitY=0.25;exitDx=0;exitDy=0;fontFamily=Courier New;fontSize=12;fillColor=#dae8fc;strokeColor=#6c8ebf;" parent="1" source="5-l3gpzBWCDoj1tkfaAm-24" target="5-l3gpzBWCDoj1tkfaAm-156" edge="1">
          <mxGeometry relative="1" as="geometry" />
        </mxCell>
        <mxCell id="5-l3gpzBWCDoj1tkfaAm-159" value="6.把VideoRenderAdapter 存到&lt;br&gt;VideoSource，来获取视频数据" style="text;html=1;align=center;verticalAlign=middle;resizable=0;points=[];autosize=1;fontSize=12;fontFamily=Courier New;fillColor=#f8cecc;strokeColor=#b85450;" parent="1" vertex="1">
          <mxGeometry x="766.6300000000001" y="1088" width="200" height="30" as="geometry" />
        </mxCell>
        <mxCell id="5-l3gpzBWCDoj1tkfaAm-160" value="VideoBroadcaster" style="rounded=0;whiteSpace=wrap;html=1;fontFamily=Courier New;fontSize=12;align=left;verticalAlign=top;" parent="1" vertex="1">
          <mxGeometry x="565" y="1230.69" width="120" height="24.31" as="geometry" />
        </mxCell>
        <mxCell id="5-l3gpzBWCDoj1tkfaAm-161" value="VideoBroadcaster" style="rounded=0;whiteSpace=wrap;html=1;fontFamily=Courier New;fontSize=12;align=center;verticalAlign=top;" parent="1" vertex="1">
          <mxGeometry x="522" y="1615.69" width="174" height="109.31" as="geometry" />
        </mxCell>
        <mxCell id="5-l3gpzBWCDoj1tkfaAm-162" value="7.把VideoRenderAdapter 存到&lt;br&gt;VideoBroadcaster，来获取视频数据" style="text;html=1;align=center;verticalAlign=middle;resizable=0;points=[];autosize=1;fontSize=12;fontFamily=Courier New;fillColor=#f8cecc;strokeColor=#b85450;" parent="1" vertex="1">
          <mxGeometry x="480" y="1465" width="230" height="30" as="geometry" />
        </mxCell>
        <mxCell id="5-l3gpzBWCDoj1tkfaAm-163" value="&lt;span&gt;1.&lt;/span&gt;&lt;span style=&quot;text-align: center&quot;&gt;VideoBroadcaster&lt;/span&gt;&lt;span&gt;继承&amp;nbsp;&lt;/span&gt;&lt;br&gt;&lt;span&gt;VideoSinkInterface，&lt;/span&gt;&lt;br&gt;&lt;span&gt;VideoSourceBase&lt;/span&gt;&lt;span&gt;；&lt;/span&gt;&lt;br&gt;&lt;span&gt;2.&lt;/span&gt;&lt;span&gt;VideoSourceBase继承VideoSourceInterface&lt;/span&gt;" style="whiteSpace=wrap;html=1;fontFamily=Courier New;fontSize=12;align=left;fillColor=#e1d5e7;strokeColor=#9673a6;" parent="1" vertex="1">
          <mxGeometry x="475" y="1752" width="300" height="93" as="geometry" />
        </mxCell>
        <mxCell id="5-l3gpzBWCDoj1tkfaAm-164" style="edgeStyle=orthogonalEdgeStyle;shape=flexArrow;rounded=0;orthogonalLoop=1;jettySize=auto;html=1;exitX=0.5;exitY=1;exitDx=0;exitDy=0;fontFamily=Courier New;fontSize=12;" parent="1" source="5-l3gpzBWCDoj1tkfaAm-163" target="5-l3gpzBWCDoj1tkfaAm-163" edge="1">
          <mxGeometry relative="1" as="geometry" />
        </mxCell>
      </root>
    </mxGraphModel>
  </diagram>
</mxfile>
